%TF.GenerationSoftware,KiCad,Pcbnew,9.0.4-9.0.4-0~ubuntu24.04.1*%
%TF.CreationDate,2025-12-27T02:43:33+11:00*%
%TF.ProjectId,ec11_horizontal_breakout_board,65633131-5f68-46f7-9269-7a6f6e74616c,rev?*%
%TF.SameCoordinates,Original*%
%TF.FileFunction,AssemblyDrawing,Bot*%
%FSLAX46Y46*%
G04 Gerber Fmt 4.6, Leading zero omitted, Abs format (unit mm)*
G04 Created by KiCad (PCBNEW 9.0.4-9.0.4-0~ubuntu24.04.1) date 2025-12-27 02:43:33*
%MOMM*%
%LPD*%
G01*
G04 APERTURE LIST*
%ADD10C,0.150000*%
%ADD11C,0.100000*%
G04 APERTURE END LIST*
D10*
X12059580Y3835240D02*
X12107200Y3882859D01*
X12107200Y3882859D02*
X12154819Y4025716D01*
X12154819Y4025716D02*
X12154819Y4120954D01*
X12154819Y4120954D02*
X12107200Y4263811D01*
X12107200Y4263811D02*
X12011961Y4359049D01*
X12011961Y4359049D02*
X11916723Y4406668D01*
X11916723Y4406668D02*
X11726247Y4454287D01*
X11726247Y4454287D02*
X11583390Y4454287D01*
X11583390Y4454287D02*
X11392914Y4406668D01*
X11392914Y4406668D02*
X11297676Y4359049D01*
X11297676Y4359049D02*
X11202438Y4263811D01*
X11202438Y4263811D02*
X11154819Y4120954D01*
X11154819Y4120954D02*
X11154819Y4025716D01*
X11154819Y4025716D02*
X11202438Y3882859D01*
X11202438Y3882859D02*
X11250057Y3835240D01*
X12154819Y3263811D02*
X12107200Y3359049D01*
X12107200Y3359049D02*
X12059580Y3406668D01*
X12059580Y3406668D02*
X11964342Y3454287D01*
X11964342Y3454287D02*
X11678628Y3454287D01*
X11678628Y3454287D02*
X11583390Y3406668D01*
X11583390Y3406668D02*
X11535771Y3359049D01*
X11535771Y3359049D02*
X11488152Y3263811D01*
X11488152Y3263811D02*
X11488152Y3120954D01*
X11488152Y3120954D02*
X11535771Y3025716D01*
X11535771Y3025716D02*
X11583390Y2978097D01*
X11583390Y2978097D02*
X11678628Y2930478D01*
X11678628Y2930478D02*
X11964342Y2930478D01*
X11964342Y2930478D02*
X12059580Y2978097D01*
X12059580Y2978097D02*
X12107200Y3025716D01*
X12107200Y3025716D02*
X12154819Y3120954D01*
X12154819Y3120954D02*
X12154819Y3263811D01*
X11488152Y2501906D02*
X12154819Y2501906D01*
X11583390Y2501906D02*
X11535771Y2454287D01*
X11535771Y2454287D02*
X11488152Y2359049D01*
X11488152Y2359049D02*
X11488152Y2216192D01*
X11488152Y2216192D02*
X11535771Y2120954D01*
X11535771Y2120954D02*
X11631009Y2073335D01*
X11631009Y2073335D02*
X12154819Y2073335D01*
X11488152Y1597144D02*
X12154819Y1597144D01*
X11583390Y1597144D02*
X11535771Y1549525D01*
X11535771Y1549525D02*
X11488152Y1454287D01*
X11488152Y1454287D02*
X11488152Y1311430D01*
X11488152Y1311430D02*
X11535771Y1216192D01*
X11535771Y1216192D02*
X11631009Y1168573D01*
X11631009Y1168573D02*
X12154819Y1168573D01*
X12250057Y930477D02*
X12250057Y168573D01*
X11154819Y-259999D02*
X11154819Y-355237D01*
X11154819Y-355237D02*
X11202438Y-450475D01*
X11202438Y-450475D02*
X11250057Y-498094D01*
X11250057Y-498094D02*
X11345295Y-545713D01*
X11345295Y-545713D02*
X11535771Y-593332D01*
X11535771Y-593332D02*
X11773866Y-593332D01*
X11773866Y-593332D02*
X11964342Y-545713D01*
X11964342Y-545713D02*
X12059580Y-498094D01*
X12059580Y-498094D02*
X12107200Y-450475D01*
X12107200Y-450475D02*
X12154819Y-355237D01*
X12154819Y-355237D02*
X12154819Y-259999D01*
X12154819Y-259999D02*
X12107200Y-164761D01*
X12107200Y-164761D02*
X12059580Y-117142D01*
X12059580Y-117142D02*
X11964342Y-69523D01*
X11964342Y-69523D02*
X11773866Y-21904D01*
X11773866Y-21904D02*
X11535771Y-21904D01*
X11535771Y-21904D02*
X11345295Y-69523D01*
X11345295Y-69523D02*
X11250057Y-117142D01*
X11250057Y-117142D02*
X11202438Y-164761D01*
X11202438Y-164761D02*
X11154819Y-259999D01*
X12154819Y-1545713D02*
X12154819Y-974285D01*
X12154819Y-1259999D02*
X11154819Y-1259999D01*
X11154819Y-1259999D02*
X11297676Y-1164761D01*
X11297676Y-1164761D02*
X11392914Y-1069523D01*
X11392914Y-1069523D02*
X11440533Y-974285D01*
X12154819Y-1879047D02*
X11488152Y-2402856D01*
X11488152Y-1879047D02*
X12154819Y-2402856D01*
X11154819Y-2974285D02*
X11154819Y-3069523D01*
X11154819Y-3069523D02*
X11202438Y-3164761D01*
X11202438Y-3164761D02*
X11250057Y-3212380D01*
X11250057Y-3212380D02*
X11345295Y-3259999D01*
X11345295Y-3259999D02*
X11535771Y-3307618D01*
X11535771Y-3307618D02*
X11773866Y-3307618D01*
X11773866Y-3307618D02*
X11964342Y-3259999D01*
X11964342Y-3259999D02*
X12059580Y-3212380D01*
X12059580Y-3212380D02*
X12107200Y-3164761D01*
X12107200Y-3164761D02*
X12154819Y-3069523D01*
X12154819Y-3069523D02*
X12154819Y-2974285D01*
X12154819Y-2974285D02*
X12107200Y-2879047D01*
X12107200Y-2879047D02*
X12059580Y-2831428D01*
X12059580Y-2831428D02*
X11964342Y-2783809D01*
X11964342Y-2783809D02*
X11773866Y-2736190D01*
X11773866Y-2736190D02*
X11535771Y-2736190D01*
X11535771Y-2736190D02*
X11345295Y-2783809D01*
X11345295Y-2783809D02*
X11250057Y-2831428D01*
X11250057Y-2831428D02*
X11202438Y-2879047D01*
X11202438Y-2879047D02*
X11154819Y-2974285D01*
X12154819Y-4259999D02*
X12154819Y-3688571D01*
X12154819Y-3974285D02*
X11154819Y-3974285D01*
X11154819Y-3974285D02*
X11297676Y-3879047D01*
X11297676Y-3879047D02*
X11392914Y-3783809D01*
X11392914Y-3783809D02*
X11440533Y-3688571D01*
X12250057Y-4450476D02*
X12250057Y-5212380D01*
X12107200Y-5402857D02*
X12154819Y-5545714D01*
X12154819Y-5545714D02*
X12154819Y-5783809D01*
X12154819Y-5783809D02*
X12107200Y-5879047D01*
X12107200Y-5879047D02*
X12059580Y-5926666D01*
X12059580Y-5926666D02*
X11964342Y-5974285D01*
X11964342Y-5974285D02*
X11869104Y-5974285D01*
X11869104Y-5974285D02*
X11773866Y-5926666D01*
X11773866Y-5926666D02*
X11726247Y-5879047D01*
X11726247Y-5879047D02*
X11678628Y-5783809D01*
X11678628Y-5783809D02*
X11631009Y-5593333D01*
X11631009Y-5593333D02*
X11583390Y-5498095D01*
X11583390Y-5498095D02*
X11535771Y-5450476D01*
X11535771Y-5450476D02*
X11440533Y-5402857D01*
X11440533Y-5402857D02*
X11345295Y-5402857D01*
X11345295Y-5402857D02*
X11250057Y-5450476D01*
X11250057Y-5450476D02*
X11202438Y-5498095D01*
X11202438Y-5498095D02*
X11154819Y-5593333D01*
X11154819Y-5593333D02*
X11154819Y-5831428D01*
X11154819Y-5831428D02*
X11202438Y-5974285D01*
X12154819Y-6545714D02*
X12107200Y-6450476D01*
X12107200Y-6450476D02*
X12059580Y-6402857D01*
X12059580Y-6402857D02*
X11964342Y-6355238D01*
X11964342Y-6355238D02*
X11678628Y-6355238D01*
X11678628Y-6355238D02*
X11583390Y-6402857D01*
X11583390Y-6402857D02*
X11535771Y-6450476D01*
X11535771Y-6450476D02*
X11488152Y-6545714D01*
X11488152Y-6545714D02*
X11488152Y-6688571D01*
X11488152Y-6688571D02*
X11535771Y-6783809D01*
X11535771Y-6783809D02*
X11583390Y-6831428D01*
X11583390Y-6831428D02*
X11678628Y-6879047D01*
X11678628Y-6879047D02*
X11964342Y-6879047D01*
X11964342Y-6879047D02*
X12059580Y-6831428D01*
X12059580Y-6831428D02*
X12107200Y-6783809D01*
X12107200Y-6783809D02*
X12154819Y-6688571D01*
X12154819Y-6688571D02*
X12154819Y-6545714D01*
X12107200Y-7736190D02*
X12154819Y-7640952D01*
X12154819Y-7640952D02*
X12154819Y-7450476D01*
X12154819Y-7450476D02*
X12107200Y-7355238D01*
X12107200Y-7355238D02*
X12059580Y-7307619D01*
X12059580Y-7307619D02*
X11964342Y-7260000D01*
X11964342Y-7260000D02*
X11678628Y-7260000D01*
X11678628Y-7260000D02*
X11583390Y-7307619D01*
X11583390Y-7307619D02*
X11535771Y-7355238D01*
X11535771Y-7355238D02*
X11488152Y-7450476D01*
X11488152Y-7450476D02*
X11488152Y-7640952D01*
X11488152Y-7640952D02*
X11535771Y-7736190D01*
X12154819Y-8164762D02*
X11154819Y-8164762D01*
X11773866Y-8260000D02*
X12154819Y-8545714D01*
X11488152Y-8545714D02*
X11869104Y-8164762D01*
X12107200Y-9355238D02*
X12154819Y-9260000D01*
X12154819Y-9260000D02*
X12154819Y-9069524D01*
X12154819Y-9069524D02*
X12107200Y-8974286D01*
X12107200Y-8974286D02*
X12011961Y-8926667D01*
X12011961Y-8926667D02*
X11631009Y-8926667D01*
X11631009Y-8926667D02*
X11535771Y-8974286D01*
X11535771Y-8974286D02*
X11488152Y-9069524D01*
X11488152Y-9069524D02*
X11488152Y-9260000D01*
X11488152Y-9260000D02*
X11535771Y-9355238D01*
X11535771Y-9355238D02*
X11631009Y-9402857D01*
X11631009Y-9402857D02*
X11726247Y-9402857D01*
X11726247Y-9402857D02*
X11821485Y-8926667D01*
X11488152Y-9688572D02*
X11488152Y-10069524D01*
X11154819Y-9831429D02*
X12011961Y-9831429D01*
X12011961Y-9831429D02*
X12107200Y-9879048D01*
X12107200Y-9879048D02*
X12154819Y-9974286D01*
X12154819Y-9974286D02*
X12154819Y-10069524D01*
X8614819Y-2426666D02*
X9329104Y-2426666D01*
X9329104Y-2426666D02*
X9471961Y-2379047D01*
X9471961Y-2379047D02*
X9567200Y-2283809D01*
X9567200Y-2283809D02*
X9614819Y-2140952D01*
X9614819Y-2140952D02*
X9614819Y-2045714D01*
X9614819Y-3426666D02*
X9614819Y-2855238D01*
X9614819Y-3140952D02*
X8614819Y-3140952D01*
X8614819Y-3140952D02*
X8757676Y-3045714D01*
X8757676Y-3045714D02*
X8852914Y-2950476D01*
X8852914Y-2950476D02*
X8900533Y-2855238D01*
X12059580Y7455240D02*
X12107200Y7502859D01*
X12107200Y7502859D02*
X12154819Y7645716D01*
X12154819Y7645716D02*
X12154819Y7740954D01*
X12154819Y7740954D02*
X12107200Y7883811D01*
X12107200Y7883811D02*
X12011961Y7979049D01*
X12011961Y7979049D02*
X11916723Y8026668D01*
X11916723Y8026668D02*
X11726247Y8074287D01*
X11726247Y8074287D02*
X11583390Y8074287D01*
X11583390Y8074287D02*
X11392914Y8026668D01*
X11392914Y8026668D02*
X11297676Y7979049D01*
X11297676Y7979049D02*
X11202438Y7883811D01*
X11202438Y7883811D02*
X11154819Y7740954D01*
X11154819Y7740954D02*
X11154819Y7645716D01*
X11154819Y7645716D02*
X11202438Y7502859D01*
X11202438Y7502859D02*
X11250057Y7455240D01*
X12154819Y6883811D02*
X12107200Y6979049D01*
X12107200Y6979049D02*
X12059580Y7026668D01*
X12059580Y7026668D02*
X11964342Y7074287D01*
X11964342Y7074287D02*
X11678628Y7074287D01*
X11678628Y7074287D02*
X11583390Y7026668D01*
X11583390Y7026668D02*
X11535771Y6979049D01*
X11535771Y6979049D02*
X11488152Y6883811D01*
X11488152Y6883811D02*
X11488152Y6740954D01*
X11488152Y6740954D02*
X11535771Y6645716D01*
X11535771Y6645716D02*
X11583390Y6598097D01*
X11583390Y6598097D02*
X11678628Y6550478D01*
X11678628Y6550478D02*
X11964342Y6550478D01*
X11964342Y6550478D02*
X12059580Y6598097D01*
X12059580Y6598097D02*
X12107200Y6645716D01*
X12107200Y6645716D02*
X12154819Y6740954D01*
X12154819Y6740954D02*
X12154819Y6883811D01*
X11488152Y6121906D02*
X12154819Y6121906D01*
X11583390Y6121906D02*
X11535771Y6074287D01*
X11535771Y6074287D02*
X11488152Y5979049D01*
X11488152Y5979049D02*
X11488152Y5836192D01*
X11488152Y5836192D02*
X11535771Y5740954D01*
X11535771Y5740954D02*
X11631009Y5693335D01*
X11631009Y5693335D02*
X12154819Y5693335D01*
X11488152Y5217144D02*
X12154819Y5217144D01*
X11583390Y5217144D02*
X11535771Y5169525D01*
X11535771Y5169525D02*
X11488152Y5074287D01*
X11488152Y5074287D02*
X11488152Y4931430D01*
X11488152Y4931430D02*
X11535771Y4836192D01*
X11535771Y4836192D02*
X11631009Y4788573D01*
X11631009Y4788573D02*
X12154819Y4788573D01*
X12250057Y4550477D02*
X12250057Y3788573D01*
X11154819Y3360001D02*
X11154819Y3264763D01*
X11154819Y3264763D02*
X11202438Y3169525D01*
X11202438Y3169525D02*
X11250057Y3121906D01*
X11250057Y3121906D02*
X11345295Y3074287D01*
X11345295Y3074287D02*
X11535771Y3026668D01*
X11535771Y3026668D02*
X11773866Y3026668D01*
X11773866Y3026668D02*
X11964342Y3074287D01*
X11964342Y3074287D02*
X12059580Y3121906D01*
X12059580Y3121906D02*
X12107200Y3169525D01*
X12107200Y3169525D02*
X12154819Y3264763D01*
X12154819Y3264763D02*
X12154819Y3360001D01*
X12154819Y3360001D02*
X12107200Y3455239D01*
X12107200Y3455239D02*
X12059580Y3502858D01*
X12059580Y3502858D02*
X11964342Y3550477D01*
X11964342Y3550477D02*
X11773866Y3598096D01*
X11773866Y3598096D02*
X11535771Y3598096D01*
X11535771Y3598096D02*
X11345295Y3550477D01*
X11345295Y3550477D02*
X11250057Y3502858D01*
X11250057Y3502858D02*
X11202438Y3455239D01*
X11202438Y3455239D02*
X11154819Y3360001D01*
X12154819Y2074287D02*
X12154819Y2645715D01*
X12154819Y2360001D02*
X11154819Y2360001D01*
X11154819Y2360001D02*
X11297676Y2455239D01*
X11297676Y2455239D02*
X11392914Y2550477D01*
X11392914Y2550477D02*
X11440533Y2645715D01*
X12154819Y1740953D02*
X11488152Y1217144D01*
X11488152Y1740953D02*
X12154819Y1217144D01*
X11154819Y645715D02*
X11154819Y550477D01*
X11154819Y550477D02*
X11202438Y455239D01*
X11202438Y455239D02*
X11250057Y407620D01*
X11250057Y407620D02*
X11345295Y360001D01*
X11345295Y360001D02*
X11535771Y312382D01*
X11535771Y312382D02*
X11773866Y312382D01*
X11773866Y312382D02*
X11964342Y360001D01*
X11964342Y360001D02*
X12059580Y407620D01*
X12059580Y407620D02*
X12107200Y455239D01*
X12107200Y455239D02*
X12154819Y550477D01*
X12154819Y550477D02*
X12154819Y645715D01*
X12154819Y645715D02*
X12107200Y740953D01*
X12107200Y740953D02*
X12059580Y788572D01*
X12059580Y788572D02*
X11964342Y836191D01*
X11964342Y836191D02*
X11773866Y883810D01*
X11773866Y883810D02*
X11535771Y883810D01*
X11535771Y883810D02*
X11345295Y836191D01*
X11345295Y836191D02*
X11250057Y788572D01*
X11250057Y788572D02*
X11202438Y740953D01*
X11202438Y740953D02*
X11154819Y645715D01*
X12154819Y-639999D02*
X12154819Y-68571D01*
X12154819Y-354285D02*
X11154819Y-354285D01*
X11154819Y-354285D02*
X11297676Y-259047D01*
X11297676Y-259047D02*
X11392914Y-163809D01*
X11392914Y-163809D02*
X11440533Y-68571D01*
X12250057Y-830476D02*
X12250057Y-1592380D01*
X12107200Y-1782857D02*
X12154819Y-1925714D01*
X12154819Y-1925714D02*
X12154819Y-2163809D01*
X12154819Y-2163809D02*
X12107200Y-2259047D01*
X12107200Y-2259047D02*
X12059580Y-2306666D01*
X12059580Y-2306666D02*
X11964342Y-2354285D01*
X11964342Y-2354285D02*
X11869104Y-2354285D01*
X11869104Y-2354285D02*
X11773866Y-2306666D01*
X11773866Y-2306666D02*
X11726247Y-2259047D01*
X11726247Y-2259047D02*
X11678628Y-2163809D01*
X11678628Y-2163809D02*
X11631009Y-1973333D01*
X11631009Y-1973333D02*
X11583390Y-1878095D01*
X11583390Y-1878095D02*
X11535771Y-1830476D01*
X11535771Y-1830476D02*
X11440533Y-1782857D01*
X11440533Y-1782857D02*
X11345295Y-1782857D01*
X11345295Y-1782857D02*
X11250057Y-1830476D01*
X11250057Y-1830476D02*
X11202438Y-1878095D01*
X11202438Y-1878095D02*
X11154819Y-1973333D01*
X11154819Y-1973333D02*
X11154819Y-2211428D01*
X11154819Y-2211428D02*
X11202438Y-2354285D01*
X12154819Y-2925714D02*
X12107200Y-2830476D01*
X12107200Y-2830476D02*
X12059580Y-2782857D01*
X12059580Y-2782857D02*
X11964342Y-2735238D01*
X11964342Y-2735238D02*
X11678628Y-2735238D01*
X11678628Y-2735238D02*
X11583390Y-2782857D01*
X11583390Y-2782857D02*
X11535771Y-2830476D01*
X11535771Y-2830476D02*
X11488152Y-2925714D01*
X11488152Y-2925714D02*
X11488152Y-3068571D01*
X11488152Y-3068571D02*
X11535771Y-3163809D01*
X11535771Y-3163809D02*
X11583390Y-3211428D01*
X11583390Y-3211428D02*
X11678628Y-3259047D01*
X11678628Y-3259047D02*
X11964342Y-3259047D01*
X11964342Y-3259047D02*
X12059580Y-3211428D01*
X12059580Y-3211428D02*
X12107200Y-3163809D01*
X12107200Y-3163809D02*
X12154819Y-3068571D01*
X12154819Y-3068571D02*
X12154819Y-2925714D01*
X12107200Y-4116190D02*
X12154819Y-4020952D01*
X12154819Y-4020952D02*
X12154819Y-3830476D01*
X12154819Y-3830476D02*
X12107200Y-3735238D01*
X12107200Y-3735238D02*
X12059580Y-3687619D01*
X12059580Y-3687619D02*
X11964342Y-3640000D01*
X11964342Y-3640000D02*
X11678628Y-3640000D01*
X11678628Y-3640000D02*
X11583390Y-3687619D01*
X11583390Y-3687619D02*
X11535771Y-3735238D01*
X11535771Y-3735238D02*
X11488152Y-3830476D01*
X11488152Y-3830476D02*
X11488152Y-4020952D01*
X11488152Y-4020952D02*
X11535771Y-4116190D01*
X12154819Y-4544762D02*
X11154819Y-4544762D01*
X11773866Y-4640000D02*
X12154819Y-4925714D01*
X11488152Y-4925714D02*
X11869104Y-4544762D01*
X12107200Y-5735238D02*
X12154819Y-5640000D01*
X12154819Y-5640000D02*
X12154819Y-5449524D01*
X12154819Y-5449524D02*
X12107200Y-5354286D01*
X12107200Y-5354286D02*
X12011961Y-5306667D01*
X12011961Y-5306667D02*
X11631009Y-5306667D01*
X11631009Y-5306667D02*
X11535771Y-5354286D01*
X11535771Y-5354286D02*
X11488152Y-5449524D01*
X11488152Y-5449524D02*
X11488152Y-5640000D01*
X11488152Y-5640000D02*
X11535771Y-5735238D01*
X11535771Y-5735238D02*
X11631009Y-5782857D01*
X11631009Y-5782857D02*
X11726247Y-5782857D01*
X11726247Y-5782857D02*
X11821485Y-5306667D01*
X11488152Y-6068572D02*
X11488152Y-6449524D01*
X11154819Y-6211429D02*
X12011961Y-6211429D01*
X12011961Y-6211429D02*
X12107200Y-6259048D01*
X12107200Y-6259048D02*
X12154819Y-6354286D01*
X12154819Y-6354286D02*
X12154819Y-6449524D01*
X8614819Y1193334D02*
X9329104Y1193334D01*
X9329104Y1193334D02*
X9471961Y1240953D01*
X9471961Y1240953D02*
X9567200Y1336191D01*
X9567200Y1336191D02*
X9614819Y1479048D01*
X9614819Y1479048D02*
X9614819Y1574286D01*
X8614819Y812381D02*
X8614819Y193334D01*
X8614819Y193334D02*
X8995771Y526667D01*
X8995771Y526667D02*
X8995771Y383810D01*
X8995771Y383810D02*
X9043390Y288572D01*
X9043390Y288572D02*
X9091009Y240953D01*
X9091009Y240953D02*
X9186247Y193334D01*
X9186247Y193334D02*
X9424342Y193334D01*
X9424342Y193334D02*
X9519580Y240953D01*
X9519580Y240953D02*
X9567200Y288572D01*
X9567200Y288572D02*
X9614819Y383810D01*
X9614819Y383810D02*
X9614819Y669524D01*
X9614819Y669524D02*
X9567200Y764762D01*
X9567200Y764762D02*
X9519580Y812381D01*
X12059580Y5755240D02*
X12107200Y5802859D01*
X12107200Y5802859D02*
X12154819Y5945716D01*
X12154819Y5945716D02*
X12154819Y6040954D01*
X12154819Y6040954D02*
X12107200Y6183811D01*
X12107200Y6183811D02*
X12011961Y6279049D01*
X12011961Y6279049D02*
X11916723Y6326668D01*
X11916723Y6326668D02*
X11726247Y6374287D01*
X11726247Y6374287D02*
X11583390Y6374287D01*
X11583390Y6374287D02*
X11392914Y6326668D01*
X11392914Y6326668D02*
X11297676Y6279049D01*
X11297676Y6279049D02*
X11202438Y6183811D01*
X11202438Y6183811D02*
X11154819Y6040954D01*
X11154819Y6040954D02*
X11154819Y5945716D01*
X11154819Y5945716D02*
X11202438Y5802859D01*
X11202438Y5802859D02*
X11250057Y5755240D01*
X12154819Y5183811D02*
X12107200Y5279049D01*
X12107200Y5279049D02*
X12059580Y5326668D01*
X12059580Y5326668D02*
X11964342Y5374287D01*
X11964342Y5374287D02*
X11678628Y5374287D01*
X11678628Y5374287D02*
X11583390Y5326668D01*
X11583390Y5326668D02*
X11535771Y5279049D01*
X11535771Y5279049D02*
X11488152Y5183811D01*
X11488152Y5183811D02*
X11488152Y5040954D01*
X11488152Y5040954D02*
X11535771Y4945716D01*
X11535771Y4945716D02*
X11583390Y4898097D01*
X11583390Y4898097D02*
X11678628Y4850478D01*
X11678628Y4850478D02*
X11964342Y4850478D01*
X11964342Y4850478D02*
X12059580Y4898097D01*
X12059580Y4898097D02*
X12107200Y4945716D01*
X12107200Y4945716D02*
X12154819Y5040954D01*
X12154819Y5040954D02*
X12154819Y5183811D01*
X11488152Y4421906D02*
X12154819Y4421906D01*
X11583390Y4421906D02*
X11535771Y4374287D01*
X11535771Y4374287D02*
X11488152Y4279049D01*
X11488152Y4279049D02*
X11488152Y4136192D01*
X11488152Y4136192D02*
X11535771Y4040954D01*
X11535771Y4040954D02*
X11631009Y3993335D01*
X11631009Y3993335D02*
X12154819Y3993335D01*
X11488152Y3517144D02*
X12154819Y3517144D01*
X11583390Y3517144D02*
X11535771Y3469525D01*
X11535771Y3469525D02*
X11488152Y3374287D01*
X11488152Y3374287D02*
X11488152Y3231430D01*
X11488152Y3231430D02*
X11535771Y3136192D01*
X11535771Y3136192D02*
X11631009Y3088573D01*
X11631009Y3088573D02*
X12154819Y3088573D01*
X12250057Y2850477D02*
X12250057Y2088573D01*
X11154819Y1660001D02*
X11154819Y1564763D01*
X11154819Y1564763D02*
X11202438Y1469525D01*
X11202438Y1469525D02*
X11250057Y1421906D01*
X11250057Y1421906D02*
X11345295Y1374287D01*
X11345295Y1374287D02*
X11535771Y1326668D01*
X11535771Y1326668D02*
X11773866Y1326668D01*
X11773866Y1326668D02*
X11964342Y1374287D01*
X11964342Y1374287D02*
X12059580Y1421906D01*
X12059580Y1421906D02*
X12107200Y1469525D01*
X12107200Y1469525D02*
X12154819Y1564763D01*
X12154819Y1564763D02*
X12154819Y1660001D01*
X12154819Y1660001D02*
X12107200Y1755239D01*
X12107200Y1755239D02*
X12059580Y1802858D01*
X12059580Y1802858D02*
X11964342Y1850477D01*
X11964342Y1850477D02*
X11773866Y1898096D01*
X11773866Y1898096D02*
X11535771Y1898096D01*
X11535771Y1898096D02*
X11345295Y1850477D01*
X11345295Y1850477D02*
X11250057Y1802858D01*
X11250057Y1802858D02*
X11202438Y1755239D01*
X11202438Y1755239D02*
X11154819Y1660001D01*
X12154819Y374287D02*
X12154819Y945715D01*
X12154819Y660001D02*
X11154819Y660001D01*
X11154819Y660001D02*
X11297676Y755239D01*
X11297676Y755239D02*
X11392914Y850477D01*
X11392914Y850477D02*
X11440533Y945715D01*
X12154819Y40953D02*
X11488152Y-482856D01*
X11488152Y40953D02*
X12154819Y-482856D01*
X11154819Y-1054285D02*
X11154819Y-1149523D01*
X11154819Y-1149523D02*
X11202438Y-1244761D01*
X11202438Y-1244761D02*
X11250057Y-1292380D01*
X11250057Y-1292380D02*
X11345295Y-1339999D01*
X11345295Y-1339999D02*
X11535771Y-1387618D01*
X11535771Y-1387618D02*
X11773866Y-1387618D01*
X11773866Y-1387618D02*
X11964342Y-1339999D01*
X11964342Y-1339999D02*
X12059580Y-1292380D01*
X12059580Y-1292380D02*
X12107200Y-1244761D01*
X12107200Y-1244761D02*
X12154819Y-1149523D01*
X12154819Y-1149523D02*
X12154819Y-1054285D01*
X12154819Y-1054285D02*
X12107200Y-959047D01*
X12107200Y-959047D02*
X12059580Y-911428D01*
X12059580Y-911428D02*
X11964342Y-863809D01*
X11964342Y-863809D02*
X11773866Y-816190D01*
X11773866Y-816190D02*
X11535771Y-816190D01*
X11535771Y-816190D02*
X11345295Y-863809D01*
X11345295Y-863809D02*
X11250057Y-911428D01*
X11250057Y-911428D02*
X11202438Y-959047D01*
X11202438Y-959047D02*
X11154819Y-1054285D01*
X12154819Y-2339999D02*
X12154819Y-1768571D01*
X12154819Y-2054285D02*
X11154819Y-2054285D01*
X11154819Y-2054285D02*
X11297676Y-1959047D01*
X11297676Y-1959047D02*
X11392914Y-1863809D01*
X11392914Y-1863809D02*
X11440533Y-1768571D01*
X12250057Y-2530476D02*
X12250057Y-3292380D01*
X12107200Y-3482857D02*
X12154819Y-3625714D01*
X12154819Y-3625714D02*
X12154819Y-3863809D01*
X12154819Y-3863809D02*
X12107200Y-3959047D01*
X12107200Y-3959047D02*
X12059580Y-4006666D01*
X12059580Y-4006666D02*
X11964342Y-4054285D01*
X11964342Y-4054285D02*
X11869104Y-4054285D01*
X11869104Y-4054285D02*
X11773866Y-4006666D01*
X11773866Y-4006666D02*
X11726247Y-3959047D01*
X11726247Y-3959047D02*
X11678628Y-3863809D01*
X11678628Y-3863809D02*
X11631009Y-3673333D01*
X11631009Y-3673333D02*
X11583390Y-3578095D01*
X11583390Y-3578095D02*
X11535771Y-3530476D01*
X11535771Y-3530476D02*
X11440533Y-3482857D01*
X11440533Y-3482857D02*
X11345295Y-3482857D01*
X11345295Y-3482857D02*
X11250057Y-3530476D01*
X11250057Y-3530476D02*
X11202438Y-3578095D01*
X11202438Y-3578095D02*
X11154819Y-3673333D01*
X11154819Y-3673333D02*
X11154819Y-3911428D01*
X11154819Y-3911428D02*
X11202438Y-4054285D01*
X12154819Y-4625714D02*
X12107200Y-4530476D01*
X12107200Y-4530476D02*
X12059580Y-4482857D01*
X12059580Y-4482857D02*
X11964342Y-4435238D01*
X11964342Y-4435238D02*
X11678628Y-4435238D01*
X11678628Y-4435238D02*
X11583390Y-4482857D01*
X11583390Y-4482857D02*
X11535771Y-4530476D01*
X11535771Y-4530476D02*
X11488152Y-4625714D01*
X11488152Y-4625714D02*
X11488152Y-4768571D01*
X11488152Y-4768571D02*
X11535771Y-4863809D01*
X11535771Y-4863809D02*
X11583390Y-4911428D01*
X11583390Y-4911428D02*
X11678628Y-4959047D01*
X11678628Y-4959047D02*
X11964342Y-4959047D01*
X11964342Y-4959047D02*
X12059580Y-4911428D01*
X12059580Y-4911428D02*
X12107200Y-4863809D01*
X12107200Y-4863809D02*
X12154819Y-4768571D01*
X12154819Y-4768571D02*
X12154819Y-4625714D01*
X12107200Y-5816190D02*
X12154819Y-5720952D01*
X12154819Y-5720952D02*
X12154819Y-5530476D01*
X12154819Y-5530476D02*
X12107200Y-5435238D01*
X12107200Y-5435238D02*
X12059580Y-5387619D01*
X12059580Y-5387619D02*
X11964342Y-5340000D01*
X11964342Y-5340000D02*
X11678628Y-5340000D01*
X11678628Y-5340000D02*
X11583390Y-5387619D01*
X11583390Y-5387619D02*
X11535771Y-5435238D01*
X11535771Y-5435238D02*
X11488152Y-5530476D01*
X11488152Y-5530476D02*
X11488152Y-5720952D01*
X11488152Y-5720952D02*
X11535771Y-5816190D01*
X12154819Y-6244762D02*
X11154819Y-6244762D01*
X11773866Y-6340000D02*
X12154819Y-6625714D01*
X11488152Y-6625714D02*
X11869104Y-6244762D01*
X12107200Y-7435238D02*
X12154819Y-7340000D01*
X12154819Y-7340000D02*
X12154819Y-7149524D01*
X12154819Y-7149524D02*
X12107200Y-7054286D01*
X12107200Y-7054286D02*
X12011961Y-7006667D01*
X12011961Y-7006667D02*
X11631009Y-7006667D01*
X11631009Y-7006667D02*
X11535771Y-7054286D01*
X11535771Y-7054286D02*
X11488152Y-7149524D01*
X11488152Y-7149524D02*
X11488152Y-7340000D01*
X11488152Y-7340000D02*
X11535771Y-7435238D01*
X11535771Y-7435238D02*
X11631009Y-7482857D01*
X11631009Y-7482857D02*
X11726247Y-7482857D01*
X11726247Y-7482857D02*
X11821485Y-7006667D01*
X11488152Y-7768572D02*
X11488152Y-8149524D01*
X11154819Y-7911429D02*
X12011961Y-7911429D01*
X12011961Y-7911429D02*
X12107200Y-7959048D01*
X12107200Y-7959048D02*
X12154819Y-8054286D01*
X12154819Y-8054286D02*
X12154819Y-8149524D01*
X8614819Y-506666D02*
X9329104Y-506666D01*
X9329104Y-506666D02*
X9471961Y-459047D01*
X9471961Y-459047D02*
X9567200Y-363809D01*
X9567200Y-363809D02*
X9614819Y-220952D01*
X9614819Y-220952D02*
X9614819Y-125714D01*
X8710057Y-935238D02*
X8662438Y-982857D01*
X8662438Y-982857D02*
X8614819Y-1078095D01*
X8614819Y-1078095D02*
X8614819Y-1316190D01*
X8614819Y-1316190D02*
X8662438Y-1411428D01*
X8662438Y-1411428D02*
X8710057Y-1459047D01*
X8710057Y-1459047D02*
X8805295Y-1506666D01*
X8805295Y-1506666D02*
X8900533Y-1506666D01*
X8900533Y-1506666D02*
X9043390Y-1459047D01*
X9043390Y-1459047D02*
X9614819Y-887619D01*
X9614819Y-887619D02*
X9614819Y-1506666D01*
X12059580Y9445240D02*
X12107200Y9492859D01*
X12107200Y9492859D02*
X12154819Y9635716D01*
X12154819Y9635716D02*
X12154819Y9730954D01*
X12154819Y9730954D02*
X12107200Y9873811D01*
X12107200Y9873811D02*
X12011961Y9969049D01*
X12011961Y9969049D02*
X11916723Y10016668D01*
X11916723Y10016668D02*
X11726247Y10064287D01*
X11726247Y10064287D02*
X11583390Y10064287D01*
X11583390Y10064287D02*
X11392914Y10016668D01*
X11392914Y10016668D02*
X11297676Y9969049D01*
X11297676Y9969049D02*
X11202438Y9873811D01*
X11202438Y9873811D02*
X11154819Y9730954D01*
X11154819Y9730954D02*
X11154819Y9635716D01*
X11154819Y9635716D02*
X11202438Y9492859D01*
X11202438Y9492859D02*
X11250057Y9445240D01*
X12154819Y8873811D02*
X12107200Y8969049D01*
X12107200Y8969049D02*
X12059580Y9016668D01*
X12059580Y9016668D02*
X11964342Y9064287D01*
X11964342Y9064287D02*
X11678628Y9064287D01*
X11678628Y9064287D02*
X11583390Y9016668D01*
X11583390Y9016668D02*
X11535771Y8969049D01*
X11535771Y8969049D02*
X11488152Y8873811D01*
X11488152Y8873811D02*
X11488152Y8730954D01*
X11488152Y8730954D02*
X11535771Y8635716D01*
X11535771Y8635716D02*
X11583390Y8588097D01*
X11583390Y8588097D02*
X11678628Y8540478D01*
X11678628Y8540478D02*
X11964342Y8540478D01*
X11964342Y8540478D02*
X12059580Y8588097D01*
X12059580Y8588097D02*
X12107200Y8635716D01*
X12107200Y8635716D02*
X12154819Y8730954D01*
X12154819Y8730954D02*
X12154819Y8873811D01*
X11488152Y8111906D02*
X12154819Y8111906D01*
X11583390Y8111906D02*
X11535771Y8064287D01*
X11535771Y8064287D02*
X11488152Y7969049D01*
X11488152Y7969049D02*
X11488152Y7826192D01*
X11488152Y7826192D02*
X11535771Y7730954D01*
X11535771Y7730954D02*
X11631009Y7683335D01*
X11631009Y7683335D02*
X12154819Y7683335D01*
X11488152Y7207144D02*
X12154819Y7207144D01*
X11583390Y7207144D02*
X11535771Y7159525D01*
X11535771Y7159525D02*
X11488152Y7064287D01*
X11488152Y7064287D02*
X11488152Y6921430D01*
X11488152Y6921430D02*
X11535771Y6826192D01*
X11535771Y6826192D02*
X11631009Y6778573D01*
X11631009Y6778573D02*
X12154819Y6778573D01*
X12250057Y6540477D02*
X12250057Y5778573D01*
X11154819Y5350001D02*
X11154819Y5254763D01*
X11154819Y5254763D02*
X11202438Y5159525D01*
X11202438Y5159525D02*
X11250057Y5111906D01*
X11250057Y5111906D02*
X11345295Y5064287D01*
X11345295Y5064287D02*
X11535771Y5016668D01*
X11535771Y5016668D02*
X11773866Y5016668D01*
X11773866Y5016668D02*
X11964342Y5064287D01*
X11964342Y5064287D02*
X12059580Y5111906D01*
X12059580Y5111906D02*
X12107200Y5159525D01*
X12107200Y5159525D02*
X12154819Y5254763D01*
X12154819Y5254763D02*
X12154819Y5350001D01*
X12154819Y5350001D02*
X12107200Y5445239D01*
X12107200Y5445239D02*
X12059580Y5492858D01*
X12059580Y5492858D02*
X11964342Y5540477D01*
X11964342Y5540477D02*
X11773866Y5588096D01*
X11773866Y5588096D02*
X11535771Y5588096D01*
X11535771Y5588096D02*
X11345295Y5540477D01*
X11345295Y5540477D02*
X11250057Y5492858D01*
X11250057Y5492858D02*
X11202438Y5445239D01*
X11202438Y5445239D02*
X11154819Y5350001D01*
X12154819Y4064287D02*
X12154819Y4635715D01*
X12154819Y4350001D02*
X11154819Y4350001D01*
X11154819Y4350001D02*
X11297676Y4445239D01*
X11297676Y4445239D02*
X11392914Y4540477D01*
X11392914Y4540477D02*
X11440533Y4635715D01*
X12154819Y3730953D02*
X11488152Y3207144D01*
X11488152Y3730953D02*
X12154819Y3207144D01*
X11154819Y2635715D02*
X11154819Y2540477D01*
X11154819Y2540477D02*
X11202438Y2445239D01*
X11202438Y2445239D02*
X11250057Y2397620D01*
X11250057Y2397620D02*
X11345295Y2350001D01*
X11345295Y2350001D02*
X11535771Y2302382D01*
X11535771Y2302382D02*
X11773866Y2302382D01*
X11773866Y2302382D02*
X11964342Y2350001D01*
X11964342Y2350001D02*
X12059580Y2397620D01*
X12059580Y2397620D02*
X12107200Y2445239D01*
X12107200Y2445239D02*
X12154819Y2540477D01*
X12154819Y2540477D02*
X12154819Y2635715D01*
X12154819Y2635715D02*
X12107200Y2730953D01*
X12107200Y2730953D02*
X12059580Y2778572D01*
X12059580Y2778572D02*
X11964342Y2826191D01*
X11964342Y2826191D02*
X11773866Y2873810D01*
X11773866Y2873810D02*
X11535771Y2873810D01*
X11535771Y2873810D02*
X11345295Y2826191D01*
X11345295Y2826191D02*
X11250057Y2778572D01*
X11250057Y2778572D02*
X11202438Y2730953D01*
X11202438Y2730953D02*
X11154819Y2635715D01*
X12154819Y1350001D02*
X12154819Y1921429D01*
X12154819Y1635715D02*
X11154819Y1635715D01*
X11154819Y1635715D02*
X11297676Y1730953D01*
X11297676Y1730953D02*
X11392914Y1826191D01*
X11392914Y1826191D02*
X11440533Y1921429D01*
X12250057Y1159524D02*
X12250057Y397620D01*
X12107200Y207143D02*
X12154819Y64286D01*
X12154819Y64286D02*
X12154819Y-173809D01*
X12154819Y-173809D02*
X12107200Y-269047D01*
X12107200Y-269047D02*
X12059580Y-316666D01*
X12059580Y-316666D02*
X11964342Y-364285D01*
X11964342Y-364285D02*
X11869104Y-364285D01*
X11869104Y-364285D02*
X11773866Y-316666D01*
X11773866Y-316666D02*
X11726247Y-269047D01*
X11726247Y-269047D02*
X11678628Y-173809D01*
X11678628Y-173809D02*
X11631009Y16667D01*
X11631009Y16667D02*
X11583390Y111905D01*
X11583390Y111905D02*
X11535771Y159524D01*
X11535771Y159524D02*
X11440533Y207143D01*
X11440533Y207143D02*
X11345295Y207143D01*
X11345295Y207143D02*
X11250057Y159524D01*
X11250057Y159524D02*
X11202438Y111905D01*
X11202438Y111905D02*
X11154819Y16667D01*
X11154819Y16667D02*
X11154819Y-221428D01*
X11154819Y-221428D02*
X11202438Y-364285D01*
X12154819Y-935714D02*
X12107200Y-840476D01*
X12107200Y-840476D02*
X12059580Y-792857D01*
X12059580Y-792857D02*
X11964342Y-745238D01*
X11964342Y-745238D02*
X11678628Y-745238D01*
X11678628Y-745238D02*
X11583390Y-792857D01*
X11583390Y-792857D02*
X11535771Y-840476D01*
X11535771Y-840476D02*
X11488152Y-935714D01*
X11488152Y-935714D02*
X11488152Y-1078571D01*
X11488152Y-1078571D02*
X11535771Y-1173809D01*
X11535771Y-1173809D02*
X11583390Y-1221428D01*
X11583390Y-1221428D02*
X11678628Y-1269047D01*
X11678628Y-1269047D02*
X11964342Y-1269047D01*
X11964342Y-1269047D02*
X12059580Y-1221428D01*
X12059580Y-1221428D02*
X12107200Y-1173809D01*
X12107200Y-1173809D02*
X12154819Y-1078571D01*
X12154819Y-1078571D02*
X12154819Y-935714D01*
X12107200Y-2126190D02*
X12154819Y-2030952D01*
X12154819Y-2030952D02*
X12154819Y-1840476D01*
X12154819Y-1840476D02*
X12107200Y-1745238D01*
X12107200Y-1745238D02*
X12059580Y-1697619D01*
X12059580Y-1697619D02*
X11964342Y-1650000D01*
X11964342Y-1650000D02*
X11678628Y-1650000D01*
X11678628Y-1650000D02*
X11583390Y-1697619D01*
X11583390Y-1697619D02*
X11535771Y-1745238D01*
X11535771Y-1745238D02*
X11488152Y-1840476D01*
X11488152Y-1840476D02*
X11488152Y-2030952D01*
X11488152Y-2030952D02*
X11535771Y-2126190D01*
X12154819Y-2554762D02*
X11154819Y-2554762D01*
X11773866Y-2650000D02*
X12154819Y-2935714D01*
X11488152Y-2935714D02*
X11869104Y-2554762D01*
X12107200Y-3745238D02*
X12154819Y-3650000D01*
X12154819Y-3650000D02*
X12154819Y-3459524D01*
X12154819Y-3459524D02*
X12107200Y-3364286D01*
X12107200Y-3364286D02*
X12011961Y-3316667D01*
X12011961Y-3316667D02*
X11631009Y-3316667D01*
X11631009Y-3316667D02*
X11535771Y-3364286D01*
X11535771Y-3364286D02*
X11488152Y-3459524D01*
X11488152Y-3459524D02*
X11488152Y-3650000D01*
X11488152Y-3650000D02*
X11535771Y-3745238D01*
X11535771Y-3745238D02*
X11631009Y-3792857D01*
X11631009Y-3792857D02*
X11726247Y-3792857D01*
X11726247Y-3792857D02*
X11821485Y-3316667D01*
X11488152Y-4078572D02*
X11488152Y-4459524D01*
X11154819Y-4221429D02*
X12011961Y-4221429D01*
X12011961Y-4221429D02*
X12107200Y-4269048D01*
X12107200Y-4269048D02*
X12154819Y-4364286D01*
X12154819Y-4364286D02*
X12154819Y-4459524D01*
X8614819Y3183334D02*
X9329104Y3183334D01*
X9329104Y3183334D02*
X9471961Y3230953D01*
X9471961Y3230953D02*
X9567200Y3326191D01*
X9567200Y3326191D02*
X9614819Y3469048D01*
X9614819Y3469048D02*
X9614819Y3564286D01*
X8948152Y2278572D02*
X9614819Y2278572D01*
X8567200Y2516667D02*
X9281485Y2754762D01*
X9281485Y2754762D02*
X9281485Y2135715D01*
%TO.C,J1*%
D11*
X8010000Y-2110000D02*
X10310000Y-2110000D01*
X10310000Y-3410000D01*
X8010000Y-3410000D01*
X8010000Y-2110000D01*
%TO.C,J3*%
X8010000Y1510000D02*
X10310000Y1510000D01*
X10310000Y210000D01*
X8010000Y210000D01*
X8010000Y1510000D01*
%TO.C,J2*%
X8010000Y-190000D02*
X10310000Y-190000D01*
X10310000Y-1490000D01*
X8010000Y-1490000D01*
X8010000Y-190000D01*
%TO.C,J4*%
X8010000Y3500000D02*
X10310000Y3500000D01*
X10310000Y2200000D01*
X8010000Y2200000D01*
X8010000Y3500000D01*
%TD*%
M02*
