%TF.GenerationSoftware,KiCad,Pcbnew,9.0.4-9.0.4-0~ubuntu24.04.1*%
%TF.CreationDate,2025-12-27T02:43:33+11:00*%
%TF.ProjectId,ec11_horizontal_breakout_board,65633131-5f68-46f7-9269-7a6f6e74616c,rev?*%
%TF.SameCoordinates,Original*%
%TF.FileFunction,Legend,Bot*%
%TF.FilePolarity,Positive*%
%FSLAX46Y46*%
G04 Gerber Fmt 4.6, Leading zero omitted, Abs format (unit mm)*
G04 Created by KiCad (PCBNEW 9.0.4-9.0.4-0~ubuntu24.04.1) date 2025-12-27 02:43:33*
%MOMM*%
%LPD*%
G01*
G04 APERTURE LIST*
%ADD10C,0.100000*%
G04 APERTURE END LIST*
D10*
X1600000Y-73500D02*
X1580000Y-1233500D01*
X-1080000Y-28500D02*
X-870000Y-28500D01*
X1600000Y846500D02*
X2180000Y-73500D01*
X-950000Y1986500D02*
X-1215000Y1116500D01*
X1580000Y-1233500D02*
X1940000Y-1750000D01*
X1600000Y1616500D02*
X1600000Y846500D01*
X-1215000Y-1173500D02*
X-860000Y-1883500D01*
X1860000Y1950000D02*
X1600000Y1616500D01*
X-1350000Y1116500D02*
X-1080000Y1116500D01*
X-1080000Y-1173500D01*
X-1350000Y-1173500D01*
X-1350000Y1116500D01*
X7551353Y2892915D02*
X7351353Y2892915D01*
X7265639Y2578629D02*
X7551353Y2578629D01*
X7551353Y2578629D02*
X7551353Y3178629D01*
X7551353Y3178629D02*
X7265639Y3178629D01*
X7008496Y2578629D02*
X7008496Y3178629D01*
X7008496Y3178629D02*
X6665639Y2578629D01*
X6665639Y2578629D02*
X6665639Y3178629D01*
X6037068Y2635772D02*
X6065640Y2607200D01*
X6065640Y2607200D02*
X6151354Y2578629D01*
X6151354Y2578629D02*
X6208497Y2578629D01*
X6208497Y2578629D02*
X6294211Y2607200D01*
X6294211Y2607200D02*
X6351354Y2664343D01*
X6351354Y2664343D02*
X6379925Y2721486D01*
X6379925Y2721486D02*
X6408497Y2835772D01*
X6408497Y2835772D02*
X6408497Y2921486D01*
X6408497Y2921486D02*
X6379925Y3035772D01*
X6379925Y3035772D02*
X6351354Y3092915D01*
X6351354Y3092915D02*
X6294211Y3150058D01*
X6294211Y3150058D02*
X6208497Y3178629D01*
X6208497Y3178629D02*
X6151354Y3178629D01*
X6151354Y3178629D02*
X6065640Y3150058D01*
X6065640Y3150058D02*
X6037068Y3121486D01*
X5922783Y2521486D02*
X5465640Y2521486D01*
X5351354Y2607200D02*
X5265640Y2578629D01*
X5265640Y2578629D02*
X5122782Y2578629D01*
X5122782Y2578629D02*
X5065640Y2607200D01*
X5065640Y2607200D02*
X5037068Y2635772D01*
X5037068Y2635772D02*
X5008497Y2692915D01*
X5008497Y2692915D02*
X5008497Y2750058D01*
X5008497Y2750058D02*
X5037068Y2807200D01*
X5037068Y2807200D02*
X5065640Y2835772D01*
X5065640Y2835772D02*
X5122782Y2864343D01*
X5122782Y2864343D02*
X5237068Y2892915D01*
X5237068Y2892915D02*
X5294211Y2921486D01*
X5294211Y2921486D02*
X5322782Y2950058D01*
X5322782Y2950058D02*
X5351354Y3007200D01*
X5351354Y3007200D02*
X5351354Y3064343D01*
X5351354Y3064343D02*
X5322782Y3121486D01*
X5322782Y3121486D02*
X5294211Y3150058D01*
X5294211Y3150058D02*
X5237068Y3178629D01*
X5237068Y3178629D02*
X5094211Y3178629D01*
X5094211Y3178629D02*
X5008497Y3150058D01*
X4751353Y2892915D02*
X4551353Y2892915D01*
X4465639Y2578629D02*
X4751353Y2578629D01*
X4751353Y2578629D02*
X4751353Y3178629D01*
X4751353Y3178629D02*
X4465639Y3178629D01*
X3922782Y2578629D02*
X4208496Y2578629D01*
X4208496Y2578629D02*
X4208496Y3178629D01*
X-1258647Y-2507085D02*
X-1344361Y-2535657D01*
X-1344361Y-2535657D02*
X-1372932Y-2564228D01*
X-1372932Y-2564228D02*
X-1401504Y-2621371D01*
X-1401504Y-2621371D02*
X-1401504Y-2707085D01*
X-1401504Y-2707085D02*
X-1372932Y-2764228D01*
X-1372932Y-2764228D02*
X-1344361Y-2792800D01*
X-1344361Y-2792800D02*
X-1287218Y-2821371D01*
X-1287218Y-2821371D02*
X-1058647Y-2821371D01*
X-1058647Y-2821371D02*
X-1058647Y-2221371D01*
X-1058647Y-2221371D02*
X-1258647Y-2221371D01*
X-1258647Y-2221371D02*
X-1315789Y-2249942D01*
X-1315789Y-2249942D02*
X-1344361Y-2278514D01*
X-1344361Y-2278514D02*
X-1372932Y-2335657D01*
X-1372932Y-2335657D02*
X-1372932Y-2392800D01*
X-1372932Y-2392800D02*
X-1344361Y-2449942D01*
X-1344361Y-2449942D02*
X-1315789Y-2478514D01*
X-1315789Y-2478514D02*
X-1258647Y-2507085D01*
X-1258647Y-2507085D02*
X-1058647Y-2507085D01*
X7991353Y3992915D02*
X7791353Y3992915D01*
X7705639Y3678629D02*
X7991353Y3678629D01*
X7991353Y3678629D02*
X7991353Y4278629D01*
X7991353Y4278629D02*
X7705639Y4278629D01*
X7105639Y3735772D02*
X7134211Y3707200D01*
X7134211Y3707200D02*
X7219925Y3678629D01*
X7219925Y3678629D02*
X7277068Y3678629D01*
X7277068Y3678629D02*
X7362782Y3707200D01*
X7362782Y3707200D02*
X7419925Y3764343D01*
X7419925Y3764343D02*
X7448496Y3821486D01*
X7448496Y3821486D02*
X7477068Y3935772D01*
X7477068Y3935772D02*
X7477068Y4021486D01*
X7477068Y4021486D02*
X7448496Y4135772D01*
X7448496Y4135772D02*
X7419925Y4192915D01*
X7419925Y4192915D02*
X7362782Y4250058D01*
X7362782Y4250058D02*
X7277068Y4278629D01*
X7277068Y4278629D02*
X7219925Y4278629D01*
X7219925Y4278629D02*
X7134211Y4250058D01*
X7134211Y4250058D02*
X7105639Y4221486D01*
X6534211Y3678629D02*
X6877068Y3678629D01*
X6705639Y3678629D02*
X6705639Y4278629D01*
X6705639Y4278629D02*
X6762782Y4192915D01*
X6762782Y4192915D02*
X6819925Y4135772D01*
X6819925Y4135772D02*
X6877068Y4107200D01*
X5962782Y3678629D02*
X6305639Y3678629D01*
X6134210Y3678629D02*
X6134210Y4278629D01*
X6134210Y4278629D02*
X6191353Y4192915D01*
X6191353Y4192915D02*
X6248496Y4135772D01*
X6248496Y4135772D02*
X6305639Y4107200D01*
X4905638Y3678629D02*
X5105638Y3964343D01*
X5248495Y3678629D02*
X5248495Y4278629D01*
X5248495Y4278629D02*
X5019924Y4278629D01*
X5019924Y4278629D02*
X4962781Y4250058D01*
X4962781Y4250058D02*
X4934210Y4221486D01*
X4934210Y4221486D02*
X4905638Y4164343D01*
X4905638Y4164343D02*
X4905638Y4078629D01*
X4905638Y4078629D02*
X4934210Y4021486D01*
X4934210Y4021486D02*
X4962781Y3992915D01*
X4962781Y3992915D02*
X5019924Y3964343D01*
X5019924Y3964343D02*
X5248495Y3964343D01*
X4562781Y3678629D02*
X4619924Y3707200D01*
X4619924Y3707200D02*
X4648495Y3735772D01*
X4648495Y3735772D02*
X4677067Y3792915D01*
X4677067Y3792915D02*
X4677067Y3964343D01*
X4677067Y3964343D02*
X4648495Y4021486D01*
X4648495Y4021486D02*
X4619924Y4050058D01*
X4619924Y4050058D02*
X4562781Y4078629D01*
X4562781Y4078629D02*
X4477067Y4078629D01*
X4477067Y4078629D02*
X4419924Y4050058D01*
X4419924Y4050058D02*
X4391353Y4021486D01*
X4391353Y4021486D02*
X4362781Y3964343D01*
X4362781Y3964343D02*
X4362781Y3792915D01*
X4362781Y3792915D02*
X4391353Y3735772D01*
X4391353Y3735772D02*
X4419924Y3707200D01*
X4419924Y3707200D02*
X4477067Y3678629D01*
X4477067Y3678629D02*
X4562781Y3678629D01*
X4191353Y4078629D02*
X3962781Y4078629D01*
X4105638Y4278629D02*
X4105638Y3764343D01*
X4105638Y3764343D02*
X4077067Y3707200D01*
X4077067Y3707200D02*
X4019924Y3678629D01*
X4019924Y3678629D02*
X3962781Y3678629D01*
X3505639Y3678629D02*
X3505639Y3992915D01*
X3505639Y3992915D02*
X3534210Y4050058D01*
X3534210Y4050058D02*
X3591353Y4078629D01*
X3591353Y4078629D02*
X3705639Y4078629D01*
X3705639Y4078629D02*
X3762781Y4050058D01*
X3505639Y3707200D02*
X3562781Y3678629D01*
X3562781Y3678629D02*
X3705639Y3678629D01*
X3705639Y3678629D02*
X3762781Y3707200D01*
X3762781Y3707200D02*
X3791353Y3764343D01*
X3791353Y3764343D02*
X3791353Y3821486D01*
X3791353Y3821486D02*
X3762781Y3878629D01*
X3762781Y3878629D02*
X3705639Y3907200D01*
X3705639Y3907200D02*
X3562781Y3907200D01*
X3562781Y3907200D02*
X3505639Y3935772D01*
X3219924Y3678629D02*
X3219924Y4078629D01*
X3219924Y3964343D02*
X3191353Y4021486D01*
X3191353Y4021486D02*
X3162782Y4050058D01*
X3162782Y4050058D02*
X3105639Y4078629D01*
X3105639Y4078629D02*
X3048496Y4078629D01*
X2905638Y4078629D02*
X2762781Y3678629D01*
X2619924Y4078629D02*
X2762781Y3678629D01*
X2762781Y3678629D02*
X2819924Y3535772D01*
X2819924Y3535772D02*
X2848495Y3507200D01*
X2848495Y3507200D02*
X2905638Y3478629D01*
X1934209Y3992915D02*
X1734209Y3992915D01*
X1648495Y3678629D02*
X1934209Y3678629D01*
X1934209Y3678629D02*
X1934209Y4278629D01*
X1934209Y4278629D02*
X1648495Y4278629D01*
X1391352Y4078629D02*
X1391352Y3678629D01*
X1391352Y4021486D02*
X1362781Y4050058D01*
X1362781Y4050058D02*
X1305638Y4078629D01*
X1305638Y4078629D02*
X1219924Y4078629D01*
X1219924Y4078629D02*
X1162781Y4050058D01*
X1162781Y4050058D02*
X1134210Y3992915D01*
X1134210Y3992915D02*
X1134210Y3678629D01*
X591353Y3707200D02*
X648495Y3678629D01*
X648495Y3678629D02*
X762781Y3678629D01*
X762781Y3678629D02*
X819924Y3707200D01*
X819924Y3707200D02*
X848495Y3735772D01*
X848495Y3735772D02*
X877067Y3792915D01*
X877067Y3792915D02*
X877067Y3964343D01*
X877067Y3964343D02*
X848495Y4021486D01*
X848495Y4021486D02*
X819924Y4050058D01*
X819924Y4050058D02*
X762781Y4078629D01*
X762781Y4078629D02*
X648495Y4078629D01*
X648495Y4078629D02*
X591353Y4050058D01*
X248495Y3678629D02*
X305638Y3707200D01*
X305638Y3707200D02*
X334209Y3735772D01*
X334209Y3735772D02*
X362781Y3792915D01*
X362781Y3792915D02*
X362781Y3964343D01*
X362781Y3964343D02*
X334209Y4021486D01*
X334209Y4021486D02*
X305638Y4050058D01*
X305638Y4050058D02*
X248495Y4078629D01*
X248495Y4078629D02*
X162781Y4078629D01*
X162781Y4078629D02*
X105638Y4050058D01*
X105638Y4050058D02*
X77067Y4021486D01*
X77067Y4021486D02*
X48495Y3964343D01*
X48495Y3964343D02*
X48495Y3792915D01*
X48495Y3792915D02*
X77067Y3735772D01*
X77067Y3735772D02*
X105638Y3707200D01*
X105638Y3707200D02*
X162781Y3678629D01*
X162781Y3678629D02*
X248495Y3678629D01*
X-465790Y3678629D02*
X-465790Y4278629D01*
X-465790Y3707200D02*
X-408648Y3678629D01*
X-408648Y3678629D02*
X-294362Y3678629D01*
X-294362Y3678629D02*
X-237219Y3707200D01*
X-237219Y3707200D02*
X-208648Y3735772D01*
X-208648Y3735772D02*
X-180076Y3792915D01*
X-180076Y3792915D02*
X-180076Y3964343D01*
X-180076Y3964343D02*
X-208648Y4021486D01*
X-208648Y4021486D02*
X-237219Y4050058D01*
X-237219Y4050058D02*
X-294362Y4078629D01*
X-294362Y4078629D02*
X-408648Y4078629D01*
X-408648Y4078629D02*
X-465790Y4050058D01*
X-980076Y3707200D02*
X-922933Y3678629D01*
X-922933Y3678629D02*
X-808647Y3678629D01*
X-808647Y3678629D02*
X-751505Y3707200D01*
X-751505Y3707200D02*
X-722933Y3764343D01*
X-722933Y3764343D02*
X-722933Y3992915D01*
X-722933Y3992915D02*
X-751505Y4050058D01*
X-751505Y4050058D02*
X-808647Y4078629D01*
X-808647Y4078629D02*
X-922933Y4078629D01*
X-922933Y4078629D02*
X-980076Y4050058D01*
X-980076Y4050058D02*
X-1008647Y3992915D01*
X-1008647Y3992915D02*
X-1008647Y3935772D01*
X-1008647Y3935772D02*
X-722933Y3878629D01*
X-1265791Y3678629D02*
X-1265791Y4078629D01*
X-1265791Y3964343D02*
X-1294362Y4021486D01*
X-1294362Y4021486D02*
X-1322933Y4050058D01*
X-1322933Y4050058D02*
X-1380076Y4078629D01*
X-1380076Y4078629D02*
X-1437219Y4078629D01*
X7197068Y-2479942D02*
X7254211Y-2451371D01*
X7254211Y-2451371D02*
X7339925Y-2451371D01*
X7339925Y-2451371D02*
X7425639Y-2479942D01*
X7425639Y-2479942D02*
X7482782Y-2537085D01*
X7482782Y-2537085D02*
X7511353Y-2594228D01*
X7511353Y-2594228D02*
X7539925Y-2708514D01*
X7539925Y-2708514D02*
X7539925Y-2794228D01*
X7539925Y-2794228D02*
X7511353Y-2908514D01*
X7511353Y-2908514D02*
X7482782Y-2965657D01*
X7482782Y-2965657D02*
X7425639Y-3022800D01*
X7425639Y-3022800D02*
X7339925Y-3051371D01*
X7339925Y-3051371D02*
X7282782Y-3051371D01*
X7282782Y-3051371D02*
X7197068Y-3022800D01*
X7197068Y-3022800D02*
X7168496Y-2994228D01*
X7168496Y-2994228D02*
X7168496Y-2794228D01*
X7168496Y-2794228D02*
X7282782Y-2794228D01*
X6911353Y-3051371D02*
X6911353Y-2451371D01*
X6911353Y-2451371D02*
X6568496Y-3051371D01*
X6568496Y-3051371D02*
X6568496Y-2451371D01*
X6282782Y-3051371D02*
X6282782Y-2451371D01*
X6282782Y-2451371D02*
X6139925Y-2451371D01*
X6139925Y-2451371D02*
X6054211Y-2479942D01*
X6054211Y-2479942D02*
X5997068Y-2537085D01*
X5997068Y-2537085D02*
X5968497Y-2594228D01*
X5968497Y-2594228D02*
X5939925Y-2708514D01*
X5939925Y-2708514D02*
X5939925Y-2794228D01*
X5939925Y-2794228D02*
X5968497Y-2908514D01*
X5968497Y-2908514D02*
X5997068Y-2965657D01*
X5997068Y-2965657D02*
X6054211Y-3022800D01*
X6054211Y-3022800D02*
X6139925Y-3051371D01*
X6139925Y-3051371D02*
X6282782Y-3051371D01*
X7541353Y862915D02*
X7341353Y862915D01*
X7255639Y548629D02*
X7541353Y548629D01*
X7541353Y548629D02*
X7541353Y1148629D01*
X7541353Y1148629D02*
X7255639Y1148629D01*
X6998496Y548629D02*
X6998496Y1148629D01*
X6998496Y1148629D02*
X6655639Y548629D01*
X6655639Y548629D02*
X6655639Y1148629D01*
X6027068Y605772D02*
X6055640Y577200D01*
X6055640Y577200D02*
X6141354Y548629D01*
X6141354Y548629D02*
X6198497Y548629D01*
X6198497Y548629D02*
X6284211Y577200D01*
X6284211Y577200D02*
X6341354Y634343D01*
X6341354Y634343D02*
X6369925Y691486D01*
X6369925Y691486D02*
X6398497Y805772D01*
X6398497Y805772D02*
X6398497Y891486D01*
X6398497Y891486D02*
X6369925Y1005772D01*
X6369925Y1005772D02*
X6341354Y1062915D01*
X6341354Y1062915D02*
X6284211Y1120058D01*
X6284211Y1120058D02*
X6198497Y1148629D01*
X6198497Y1148629D02*
X6141354Y1148629D01*
X6141354Y1148629D02*
X6055640Y1120058D01*
X6055640Y1120058D02*
X6027068Y1091486D01*
X5912783Y491486D02*
X5455640Y491486D01*
X5341354Y720058D02*
X5055640Y720058D01*
X5398497Y548629D02*
X5198497Y1148629D01*
X5198497Y1148629D02*
X4998497Y548629D01*
X-1110075Y2430058D02*
X-1395789Y2430058D01*
X-1052932Y2258629D02*
X-1252932Y2858629D01*
X-1252932Y2858629D02*
X-1452932Y2258629D01*
X7591353Y-3707085D02*
X7505639Y-3735657D01*
X7505639Y-3735657D02*
X7477068Y-3764228D01*
X7477068Y-3764228D02*
X7448496Y-3821371D01*
X7448496Y-3821371D02*
X7448496Y-3907085D01*
X7448496Y-3907085D02*
X7477068Y-3964228D01*
X7477068Y-3964228D02*
X7505639Y-3992800D01*
X7505639Y-3992800D02*
X7562782Y-4021371D01*
X7562782Y-4021371D02*
X7791353Y-4021371D01*
X7791353Y-4021371D02*
X7791353Y-3421371D01*
X7791353Y-3421371D02*
X7591353Y-3421371D01*
X7591353Y-3421371D02*
X7534211Y-3449942D01*
X7534211Y-3449942D02*
X7505639Y-3478514D01*
X7505639Y-3478514D02*
X7477068Y-3535657D01*
X7477068Y-3535657D02*
X7477068Y-3592800D01*
X7477068Y-3592800D02*
X7505639Y-3649942D01*
X7505639Y-3649942D02*
X7534211Y-3678514D01*
X7534211Y-3678514D02*
X7591353Y-3707085D01*
X7591353Y-3707085D02*
X7791353Y-3707085D01*
X7191353Y-4021371D02*
X7191353Y-3621371D01*
X7191353Y-3735657D02*
X7162782Y-3678514D01*
X7162782Y-3678514D02*
X7134211Y-3649942D01*
X7134211Y-3649942D02*
X7077068Y-3621371D01*
X7077068Y-3621371D02*
X7019925Y-3621371D01*
X6591353Y-3992800D02*
X6648496Y-4021371D01*
X6648496Y-4021371D02*
X6762782Y-4021371D01*
X6762782Y-4021371D02*
X6819924Y-3992800D01*
X6819924Y-3992800D02*
X6848496Y-3935657D01*
X6848496Y-3935657D02*
X6848496Y-3707085D01*
X6848496Y-3707085D02*
X6819924Y-3649942D01*
X6819924Y-3649942D02*
X6762782Y-3621371D01*
X6762782Y-3621371D02*
X6648496Y-3621371D01*
X6648496Y-3621371D02*
X6591353Y-3649942D01*
X6591353Y-3649942D02*
X6562782Y-3707085D01*
X6562782Y-3707085D02*
X6562782Y-3764228D01*
X6562782Y-3764228D02*
X6848496Y-3821371D01*
X6048496Y-4021371D02*
X6048496Y-3707085D01*
X6048496Y-3707085D02*
X6077067Y-3649942D01*
X6077067Y-3649942D02*
X6134210Y-3621371D01*
X6134210Y-3621371D02*
X6248496Y-3621371D01*
X6248496Y-3621371D02*
X6305638Y-3649942D01*
X6048496Y-3992800D02*
X6105638Y-4021371D01*
X6105638Y-4021371D02*
X6248496Y-4021371D01*
X6248496Y-4021371D02*
X6305638Y-3992800D01*
X6305638Y-3992800D02*
X6334210Y-3935657D01*
X6334210Y-3935657D02*
X6334210Y-3878514D01*
X6334210Y-3878514D02*
X6305638Y-3821371D01*
X6305638Y-3821371D02*
X6248496Y-3792800D01*
X6248496Y-3792800D02*
X6105638Y-3792800D01*
X6105638Y-3792800D02*
X6048496Y-3764228D01*
X5762781Y-4021371D02*
X5762781Y-3421371D01*
X5705639Y-3792800D02*
X5534210Y-4021371D01*
X5534210Y-3621371D02*
X5762781Y-3849942D01*
X5191353Y-4021371D02*
X5248496Y-3992800D01*
X5248496Y-3992800D02*
X5277067Y-3964228D01*
X5277067Y-3964228D02*
X5305639Y-3907085D01*
X5305639Y-3907085D02*
X5305639Y-3735657D01*
X5305639Y-3735657D02*
X5277067Y-3678514D01*
X5277067Y-3678514D02*
X5248496Y-3649942D01*
X5248496Y-3649942D02*
X5191353Y-3621371D01*
X5191353Y-3621371D02*
X5105639Y-3621371D01*
X5105639Y-3621371D02*
X5048496Y-3649942D01*
X5048496Y-3649942D02*
X5019925Y-3678514D01*
X5019925Y-3678514D02*
X4991353Y-3735657D01*
X4991353Y-3735657D02*
X4991353Y-3907085D01*
X4991353Y-3907085D02*
X5019925Y-3964228D01*
X5019925Y-3964228D02*
X5048496Y-3992800D01*
X5048496Y-3992800D02*
X5105639Y-4021371D01*
X5105639Y-4021371D02*
X5191353Y-4021371D01*
X4477068Y-3621371D02*
X4477068Y-4021371D01*
X4734210Y-3621371D02*
X4734210Y-3935657D01*
X4734210Y-3935657D02*
X4705639Y-3992800D01*
X4705639Y-3992800D02*
X4648496Y-4021371D01*
X4648496Y-4021371D02*
X4562782Y-4021371D01*
X4562782Y-4021371D02*
X4505639Y-3992800D01*
X4505639Y-3992800D02*
X4477068Y-3964228D01*
X4277068Y-3621371D02*
X4048496Y-3621371D01*
X4191353Y-3421371D02*
X4191353Y-3935657D01*
X4191353Y-3935657D02*
X4162782Y-3992800D01*
X4162782Y-3992800D02*
X4105639Y-4021371D01*
X4105639Y-4021371D02*
X4048496Y-4021371D01*
X3191353Y-3707085D02*
X3105639Y-3735657D01*
X3105639Y-3735657D02*
X3077068Y-3764228D01*
X3077068Y-3764228D02*
X3048496Y-3821371D01*
X3048496Y-3821371D02*
X3048496Y-3907085D01*
X3048496Y-3907085D02*
X3077068Y-3964228D01*
X3077068Y-3964228D02*
X3105639Y-3992800D01*
X3105639Y-3992800D02*
X3162782Y-4021371D01*
X3162782Y-4021371D02*
X3391353Y-4021371D01*
X3391353Y-4021371D02*
X3391353Y-3421371D01*
X3391353Y-3421371D02*
X3191353Y-3421371D01*
X3191353Y-3421371D02*
X3134211Y-3449942D01*
X3134211Y-3449942D02*
X3105639Y-3478514D01*
X3105639Y-3478514D02*
X3077068Y-3535657D01*
X3077068Y-3535657D02*
X3077068Y-3592800D01*
X3077068Y-3592800D02*
X3105639Y-3649942D01*
X3105639Y-3649942D02*
X3134211Y-3678514D01*
X3134211Y-3678514D02*
X3191353Y-3707085D01*
X3191353Y-3707085D02*
X3391353Y-3707085D01*
X2705639Y-4021371D02*
X2762782Y-3992800D01*
X2762782Y-3992800D02*
X2791353Y-3964228D01*
X2791353Y-3964228D02*
X2819925Y-3907085D01*
X2819925Y-3907085D02*
X2819925Y-3735657D01*
X2819925Y-3735657D02*
X2791353Y-3678514D01*
X2791353Y-3678514D02*
X2762782Y-3649942D01*
X2762782Y-3649942D02*
X2705639Y-3621371D01*
X2705639Y-3621371D02*
X2619925Y-3621371D01*
X2619925Y-3621371D02*
X2562782Y-3649942D01*
X2562782Y-3649942D02*
X2534211Y-3678514D01*
X2534211Y-3678514D02*
X2505639Y-3735657D01*
X2505639Y-3735657D02*
X2505639Y-3907085D01*
X2505639Y-3907085D02*
X2534211Y-3964228D01*
X2534211Y-3964228D02*
X2562782Y-3992800D01*
X2562782Y-3992800D02*
X2619925Y-4021371D01*
X2619925Y-4021371D02*
X2705639Y-4021371D01*
X1991354Y-4021371D02*
X1991354Y-3707085D01*
X1991354Y-3707085D02*
X2019925Y-3649942D01*
X2019925Y-3649942D02*
X2077068Y-3621371D01*
X2077068Y-3621371D02*
X2191354Y-3621371D01*
X2191354Y-3621371D02*
X2248496Y-3649942D01*
X1991354Y-3992800D02*
X2048496Y-4021371D01*
X2048496Y-4021371D02*
X2191354Y-4021371D01*
X2191354Y-4021371D02*
X2248496Y-3992800D01*
X2248496Y-3992800D02*
X2277068Y-3935657D01*
X2277068Y-3935657D02*
X2277068Y-3878514D01*
X2277068Y-3878514D02*
X2248496Y-3821371D01*
X2248496Y-3821371D02*
X2191354Y-3792800D01*
X2191354Y-3792800D02*
X2048496Y-3792800D01*
X2048496Y-3792800D02*
X1991354Y-3764228D01*
X1705639Y-4021371D02*
X1705639Y-3621371D01*
X1705639Y-3735657D02*
X1677068Y-3678514D01*
X1677068Y-3678514D02*
X1648497Y-3649942D01*
X1648497Y-3649942D02*
X1591354Y-3621371D01*
X1591354Y-3621371D02*
X1534211Y-3621371D01*
X1077068Y-4021371D02*
X1077068Y-3421371D01*
X1077068Y-3992800D02*
X1134210Y-4021371D01*
X1134210Y-4021371D02*
X1248496Y-4021371D01*
X1248496Y-4021371D02*
X1305639Y-3992800D01*
X1305639Y-3992800D02*
X1334210Y-3964228D01*
X1334210Y-3964228D02*
X1362782Y-3907085D01*
X1362782Y-3907085D02*
X1362782Y-3735657D01*
X1362782Y-3735657D02*
X1334210Y-3678514D01*
X1334210Y-3678514D02*
X1305639Y-3649942D01*
X1305639Y-3649942D02*
X1248496Y-3621371D01*
X1248496Y-3621371D02*
X1134210Y-3621371D01*
X1134210Y-3621371D02*
X1077068Y-3649942D01*
X-8647Y-4021371D02*
X191353Y-3735657D01*
X334210Y-4021371D02*
X334210Y-3421371D01*
X334210Y-3421371D02*
X105639Y-3421371D01*
X105639Y-3421371D02*
X48496Y-3449942D01*
X48496Y-3449942D02*
X19925Y-3478514D01*
X19925Y-3478514D02*
X-8647Y-3535657D01*
X-8647Y-3535657D02*
X-8647Y-3621371D01*
X-8647Y-3621371D02*
X19925Y-3678514D01*
X19925Y-3678514D02*
X48496Y-3707085D01*
X48496Y-3707085D02*
X105639Y-3735657D01*
X105639Y-3735657D02*
X334210Y-3735657D01*
X-494361Y-3992800D02*
X-437218Y-4021371D01*
X-437218Y-4021371D02*
X-322932Y-4021371D01*
X-322932Y-4021371D02*
X-265790Y-3992800D01*
X-265790Y-3992800D02*
X-237218Y-3935657D01*
X-237218Y-3935657D02*
X-237218Y-3707085D01*
X-237218Y-3707085D02*
X-265790Y-3649942D01*
X-265790Y-3649942D02*
X-322932Y-3621371D01*
X-322932Y-3621371D02*
X-437218Y-3621371D01*
X-437218Y-3621371D02*
X-494361Y-3649942D01*
X-494361Y-3649942D02*
X-522932Y-3707085D01*
X-522932Y-3707085D02*
X-522932Y-3764228D01*
X-522932Y-3764228D02*
X-237218Y-3821371D01*
X-722933Y-3621371D02*
X-865790Y-4021371D01*
X-865790Y-4021371D02*
X-1008647Y-3621371D01*
X-1551504Y-4021371D02*
X-1208647Y-4021371D01*
X-1380076Y-4021371D02*
X-1380076Y-3421371D01*
X-1380076Y-3421371D02*
X-1322933Y-3507085D01*
X-1322933Y-3507085D02*
X-1265790Y-3564228D01*
X-1265790Y-3564228D02*
X-1208647Y-3592800D01*
X7541353Y-827085D02*
X7341353Y-827085D01*
X7255639Y-1141371D02*
X7541353Y-1141371D01*
X7541353Y-1141371D02*
X7541353Y-541371D01*
X7541353Y-541371D02*
X7255639Y-541371D01*
X6998496Y-1141371D02*
X6998496Y-541371D01*
X6998496Y-541371D02*
X6655639Y-1141371D01*
X6655639Y-1141371D02*
X6655639Y-541371D01*
X6027068Y-1084228D02*
X6055640Y-1112800D01*
X6055640Y-1112800D02*
X6141354Y-1141371D01*
X6141354Y-1141371D02*
X6198497Y-1141371D01*
X6198497Y-1141371D02*
X6284211Y-1112800D01*
X6284211Y-1112800D02*
X6341354Y-1055657D01*
X6341354Y-1055657D02*
X6369925Y-998514D01*
X6369925Y-998514D02*
X6398497Y-884228D01*
X6398497Y-884228D02*
X6398497Y-798514D01*
X6398497Y-798514D02*
X6369925Y-684228D01*
X6369925Y-684228D02*
X6341354Y-627085D01*
X6341354Y-627085D02*
X6284211Y-569942D01*
X6284211Y-569942D02*
X6198497Y-541371D01*
X6198497Y-541371D02*
X6141354Y-541371D01*
X6141354Y-541371D02*
X6055640Y-569942D01*
X6055640Y-569942D02*
X6027068Y-598514D01*
X5912783Y-1198514D02*
X5455640Y-1198514D01*
X5112782Y-827085D02*
X5027068Y-855657D01*
X5027068Y-855657D02*
X4998497Y-884228D01*
X4998497Y-884228D02*
X4969925Y-941371D01*
X4969925Y-941371D02*
X4969925Y-1027085D01*
X4969925Y-1027085D02*
X4998497Y-1084228D01*
X4998497Y-1084228D02*
X5027068Y-1112800D01*
X5027068Y-1112800D02*
X5084211Y-1141371D01*
X5084211Y-1141371D02*
X5312782Y-1141371D01*
X5312782Y-1141371D02*
X5312782Y-541371D01*
X5312782Y-541371D02*
X5112782Y-541371D01*
X5112782Y-541371D02*
X5055640Y-569942D01*
X5055640Y-569942D02*
X5027068Y-598514D01*
X5027068Y-598514D02*
X4998497Y-655657D01*
X4998497Y-655657D02*
X4998497Y-712800D01*
X4998497Y-712800D02*
X5027068Y-769942D01*
X5027068Y-769942D02*
X5055640Y-798514D01*
X5055640Y-798514D02*
X5112782Y-827085D01*
X5112782Y-827085D02*
X5312782Y-827085D01*
M02*
